# xmcd
#
# Track frame offsets: 
#        150
#        34611
#        60655
#        89001
#        112492
#        129605
#        157701
#        196439
#        232984
#        255826
#        294337
#
# Disc length: 4270 seconds
#
# Revision: 0
# Processed by: cddbd v1.5.2PL0 Copyright (c) Steve Scherf et al.
# Submitted via: ExactAudioCopy v0.99pb3
#
DISCID=9210ac0b
DTITLE=Wishbone Ash - The Living Proof
DYEAR=1992
DGENRE=Blues
TTITLE0=The King Will Come
TTITLE1=This Strange Affair
TTITLE2=Standing in the rain
TTITLE3=Lost Cause of Paradise
TTITLE4=Keeper of the light
TTITLE5=Throw Down The Sword
TTITLE6=In the skin
TTITLE7=Why don`t We
TTITLE8=Hard Times
TTITLE9=Blowing Free
TTITLE10=The Living Proof
EXTD=
EXTT0=
EXTT1=
EXTT2=
EXTT3=
EXTT4=
EXTT5=
EXTT6=
EXTT7=
EXTT8=
EXTT9=
EXTT10=
PLAYORDER=
